<?xml version="1.0" encoding="UTF-8"?><svg id="Calque_1" xmlns="http://www.w3.org/2000/svg" viewBox="0 0 863.71 114.65"><defs><style>.cls-1{fill:#f7f7f7;}</style></defs><path class="cls-1" d="M0,114.65v-8.77h17.19c5.21,0,9.21-1.38,12.02-4.15,2.8-2.76,4.21-6.67,4.21-11.72v-54.44H2.4v-8.65h40.5v63.09c0,7.53-2.3,13.52-6.91,17.97-4.61,4.45-10.88,6.67-18.81,6.67H0ZM37.5,14.78c-2.48,0-4.47-.64-5.95-1.92-1.48-1.28-2.22-3.04-2.22-5.29s.74-4.17,2.22-5.53c1.48-1.36,3.46-2.04,5.95-2.04s4.47.68,5.95,2.04c1.48,1.36,2.22,3.21,2.22,5.53s-.74,4.01-2.22,5.29c-1.48,1.28-3.47,1.92-5.95,1.92Z"/><path class="cls-1" d="M91.33,94.1c-7.77,0-13.92-2.24-18.45-6.73-4.53-4.49-6.79-10.58-6.79-18.27v-18.27c0-7.69,2.26-13.78,6.79-18.27,4.53-4.49,10.68-6.73,18.45-6.73s13.92,2.24,18.45,6.73c4.53,4.49,6.79,10.54,6.79,18.15v18.39c0,7.69-2.26,13.78-6.79,18.27-4.53,4.49-10.68,6.73-18.45,6.73ZM91.33,85.57c4.89,0,8.71-1.4,11.48-4.21,2.76-2.8,4.15-6.89,4.15-12.26v-18.27c0-5.37-1.38-9.45-4.15-12.26-2.76-2.8-6.59-4.21-11.48-4.21s-8.71,1.4-11.48,4.21c-2.76,2.81-4.15,6.89-4.15,12.26v18.27c0,5.37,1.38,9.45,4.15,12.26,2.76,2.81,6.59,4.21,11.48,4.21Z"/><path class="cls-1" d="M130.75,93.02v-9.49l27.04-28.72c4.81-5.05,8.33-9.61,10.58-13.7,2.24-4.09,3.36-8.05,3.36-11.9,0-5.13-1.46-9.19-4.39-12.2-2.93-3-6.91-4.51-11.96-4.51s-9.48,1.52-12.56,4.57c-3.09,3.05-4.63,7.21-4.63,12.5h-9.61c.16-7.77,2.66-13.96,7.51-18.57,4.85-4.61,11.28-6.91,19.29-6.91s14.22,2.24,18.87,6.73c4.65,4.49,6.97,10.58,6.97,18.27,0,5.05-1.36,10.1-4.09,15.14-2.72,5.05-7.09,10.7-13.1,16.95l-22.47,23.19h41.34v8.65h-52.16Z"/><path class="cls-1" d="M233.99,93.02v-19.59h-39.9v-15.62L226.77,5.29h10.34l-33.41,54.56v4.93h30.29v-22.23h9.49v50.48h-9.49Z"/><path class="cls-1" d="M336.38,93.02l11.18-60.93h-.48l-33.05,60.93h-14.06l-11.3-60.93h-.48l-10.22,60.93h-18.75l15.02-85.09h28l9.85,55.16h.48l28.72-55.16h29.68l-15.02,85.09h-19.59Z"/><path class="cls-1" d="M422.66,5.77c6.41,0,12.16.88,17.25,2.64,5.09,1.76,9.39,4.29,12.92,7.57,3.52,3.29,6.23,7.25,8.11,11.9,1.88,4.65,2.82,9.82,2.82,15.5,0,7.21-1.22,13.96-3.66,20.25-2.45,6.29-5.87,11.78-10.28,16.46-4.41,4.69-9.68,8.37-15.8,11.06s-12.88,4.03-20.25,4.03c-6.49,0-12.3-.88-17.43-2.64-5.13-1.76-9.48-4.28-13.04-7.57-3.57-3.28-6.29-7.25-8.17-11.9-1.88-4.65-2.82-9.81-2.82-15.5,0-7.21,1.24-13.96,3.73-20.25,2.48-6.29,5.97-11.78,10.46-16.46,4.49-4.69,9.79-8.37,15.92-11.06,6.13-2.68,12.88-4.03,20.25-4.03ZM414.85,77.15c4.4,0,8.35-.9,11.84-2.7,3.48-1.8,6.43-4.21,8.83-7.21,2.4-3,4.25-6.45,5.53-10.34,1.28-3.89,1.92-7.87,1.92-11.96,0-2.96-.48-5.75-1.44-8.35-.96-2.6-2.34-4.87-4.15-6.79s-4.07-3.44-6.79-4.57c-2.72-1.12-5.81-1.68-9.25-1.68-4.33,0-8.23.92-11.72,2.76-3.48,1.84-6.45,4.27-8.89,7.27-2.45,3-4.33,6.43-5.65,10.28s-1.98,7.81-1.98,11.9c0,2.96.48,5.75,1.44,8.35.96,2.6,2.36,4.87,4.21,6.79,1.84,1.92,4.1,3.45,6.79,4.57,2.68,1.12,5.79,1.68,9.31,1.68Z"/><path class="cls-1" d="M513.52,7.93c2.96,0,5.93.32,8.89.96,2.96.64,5.63,1.7,7.99,3.18,2.36,1.48,4.29,3.41,5.77,5.77,1.48,2.36,2.22,5.27,2.22,8.71,0,5.77-1.68,10.5-5.05,14.18-3.37,3.69-7.73,6.21-13.1,7.57v.24c4.33.72,7.95,2.66,10.88,5.83,2.92,3.17,4.39,7.27,4.39,12.32,0,4.33-.9,8.13-2.7,11.42-1.8,3.29-4.31,6.03-7.51,8.23-3.21,2.2-7.05,3.87-11.54,4.99-4.49,1.12-9.37,1.68-14.66,1.68h-33.89l15.02-85.09h33.29ZM490.56,56.6l-3.49,20.31h11.66c2.24,0,4.37-.2,6.37-.6,2-.4,3.79-1.04,5.35-1.92,1.56-.88,2.8-2.08,3.73-3.61.92-1.52,1.38-3.36,1.38-5.53,0-2.72-1.04-4.85-3.12-6.37-2.08-1.52-5.05-2.28-8.89-2.28h-12.98ZM496.33,24.04l-3.12,18.15h12.26c1.44,0,2.94-.16,4.51-.48,1.56-.32,2.98-.88,4.27-1.67,1.28-.8,2.34-1.87,3.18-3.22.84-1.35,1.26-3.02,1.26-5.01,0-2.79-1.08-4.77-3.24-5.97s-4.89-1.79-8.17-1.79h-10.94Z"/><path class="cls-1" d="M540.8,93.02l15.02-85.09h20.07l-15.02,85.09h-20.07Z"/><path class="cls-1" d="M574.45,93.02l15.02-85.09h20.07l-12.02,67.66h33.41l-3.12,17.43h-53.36Z"/><path class="cls-1" d="M633.33,93.02l15.02-85.09h20.07l-15.02,85.09h-20.07Z"/><path class="cls-1" d="M713.37,25.12l-12.02,67.9h-19.95l11.9-67.9h-23.8l3.12-17.19h67.06l-3,17.19h-23.31Z"/><path class="cls-1" d="M729.23,93.02l15.02-85.09h54.44l-3,17.07h-35.33l-2.88,16.46h33.65l-2.88,16.1h-33.65l-3.12,18.27h38.7l-3,17.19h-57.93Z"/><path class="cls-1" d="M850.13,28.6c-1.6-2.16-3.61-3.8-6.01-4.93-2.4-1.12-5.09-1.68-8.05-1.68-1.36,0-2.81.18-4.33.54-1.52.36-2.9.96-4.15,1.8-1.24.84-2.28,1.9-3.12,3.19-.84,1.28-1.26,2.84-1.26,4.69,0,2.4.94,4.31,2.82,5.71,1.88,1.4,4.51,2.7,7.87,3.91,3.68,1.28,6.97,2.7,9.86,4.27,2.88,1.56,5.33,3.35,7.33,5.35,2,2,3.52,4.27,4.57,6.79,1.04,2.52,1.56,5.39,1.56,8.59,0,5.13-1.06,9.49-3.18,13.1-2.12,3.61-4.87,6.55-8.23,8.83-3.37,2.28-7.13,3.95-11.3,4.99-4.17,1.04-8.29,1.56-12.38,1.56-3.05,0-6.09-.28-9.13-.84-3.05-.56-5.97-1.38-8.77-2.46-2.81-1.08-5.41-2.46-7.81-4.15-2.4-1.68-4.45-3.61-6.13-5.77l14.78-12.02c1.68,2.56,4.17,4.65,7.45,6.25,3.28,1.6,6.61,2.4,9.97,2.4,1.76,0,3.46-.18,5.11-.54,1.64-.36,3.1-.96,4.39-1.8,1.28-.84,2.3-1.92,3.07-3.24.76-1.32,1.14-2.9,1.14-4.75,0-2.96-1.2-5.31-3.61-7.03-2.4-1.72-5.61-3.26-9.61-4.63-2.81-.96-5.43-2.04-7.87-3.25-2.45-1.2-4.57-2.68-6.37-4.45-1.8-1.76-3.25-3.86-4.33-6.31-1.08-2.44-1.62-5.39-1.62-8.83,0-4.33.9-8.23,2.7-11.72s4.27-6.45,7.39-8.89c3.12-2.44,6.77-4.33,10.94-5.65,4.17-1.32,8.61-1.98,13.34-1.98,2.48,0,5.01.24,7.57.72,2.56.48,5.03,1.18,7.39,2.1,2.36.92,4.55,2.06,6.55,3.42,2,1.36,3.68,2.93,5.05,4.69l-13.58,12.02Z"/></svg>